<svg version="1.1" id="Layer_1" xmlns="http://www.w3.org/2000/svg" xmlns:xlink="http://www.w3.org/1999/xlink" x="0px" y="0px"
	 width="22.275px" height="40px" viewBox="-2.786 -5 22.275 40" enable-background="new -2.786 -5 22.275 40" xml:space="preserve">
<path fill="#000" d="M19.489-1.067c0-0.219-0.02-0.446-0.06-0.687c-0.039-0.238-0.058-0.486-0.058-0.744V-2.99
	c0-0.168,0.008-0.332,0.027-0.49c0-0.08,0.016-0.156,0.046-0.224c0.027-0.069,0.044-0.154,0.044-0.253
	c0-0.239-0.145-0.453-0.432-0.641c-0.289-0.188-0.522-0.282-0.699-0.282c-0.12,0-0.233,0.014-0.343,0.044s-0.214,0.043-0.312,0.043
	c-0.099-0.039-0.219-0.055-0.358-0.043c-0.139,0.009-0.248-0.017-0.326-0.074c-0.159,0-0.313-0.016-0.464-0.044
	C16.407-4.985,16.263-5,16.125-5c-0.159,0-0.297,0.03-0.417,0.09c-0.06-0.021-0.129-0.03-0.208-0.03h-0.268
	c-0.118,0-0.228,0.01-0.328,0.03c-0.099,0.02-0.196,0.028-0.298,0.028c-0.098,0-0.198-0.021-0.297-0.06
	C14.21-4.98,14.111-5,14.011-5c-0.04,0-0.121,0.02-0.238,0.059c-0.102,0-0.195-0.005-0.283-0.015
	c-0.089-0.012-0.186-0.017-0.284-0.017s-0.173,0.03-0.222,0.09c-0.049,0.059-0.146,0.087-0.285,0.087
	c-0.098,0-0.182-0.013-0.251-0.043c-0.07-0.029-0.153-0.044-0.253-0.044c-0.119,0-0.238,0.02-0.359,0.059
	c-0.117,0.04-0.227,0.081-0.325,0.12c-0.021-0.061-0.115-0.104-0.284-0.135c-0.169-0.029-0.262-0.044-0.281-0.044
	c-0.14,0-0.25,0.03-0.328,0.087c-0.12-0.039-0.219-0.057-0.3-0.057c-0.118,0-0.236,0.01-0.357,0.028
	C9.84-4.804,9.721-4.796,9.603-4.796c-0.102,0-0.191-0.018-0.268-0.057c-0.082-0.041-0.17-0.061-0.27-0.061
	c-0.159,0-0.338,0.07-0.535,0.209c-0.081,0-0.175-0.029-0.284-0.089S8.015-4.882,7.874-4.882c-0.14,0-0.244,0.016-0.312,0.045
	c-0.07,0.028-0.154,0.074-0.254,0.133c-0.038,0-0.08-0.027-0.119-0.089c-0.039-0.06-0.189-0.089-0.446-0.089
	c-0.119,0-0.219,0.004-0.299,0.016C6.364-4.855,6.277-4.853,6.177-4.853H5.879c-0.198,0-0.318,0.049-0.358,0.148
	c-0.101,0-0.188-0.019-0.269-0.059C5.173-4.804,5.074-4.821,4.954-4.821c-0.078,0-0.169,0.016-0.268,0.044
	c-0.1,0.028-0.169,0.046-0.209,0.046c-0.02,0-0.064-0.02-0.135-0.062C4.274-4.832,4.209-4.851,4.149-4.851
	c-0.159,0-0.293,0.034-0.401,0.104c-0.109,0.07-0.245,0.104-0.402,0.104c-0.079,0-0.159-0.015-0.238-0.045
	C3.026-4.718,2.938-4.73,2.839-4.73S2.635-4.722,2.525-4.702c-0.109,0.019-0.214,0.03-0.312,0.03c-0.102,0-0.18-0.012-0.239-0.03
	c-0.198,0.019-0.393,0.03-0.581,0.03h-1.562c-0.159,0-0.312,0.004-0.461,0.015c-0.148,0.009-0.304,0.016-0.461,0.016
	c-0.119,0-0.248-0.026-0.389-0.076c-0.138-0.051-0.287-0.075-0.445-0.075c-0.377,0-0.615,0.184-0.716,0.55
	c-0.099,0.368-0.146,0.792-0.146,1.266c0,0.14,0.02,0.289,0.057,0.448c0,0.219-0.005,0.424-0.014,0.622
	c-0.011,0.199-0.016,0.409-0.016,0.628c0,0.118,0.005,0.242,0.016,0.372c0.009,0.128,0.014,0.253,0.014,0.371v0.269
	c0,0.099,0.022,0.168,0.061,0.208c-0.061,0.179-0.089,0.406-0.089,0.686c0,0.099,0.005,0.204,0.016,0.313s0.016,0.211,0.016,0.312
	v0.209c0,0.119,0.02,0.197,0.06,0.236c-0.04,0.041-0.06,0.12-0.06,0.24v0.356h-0.06c0.079,0.458,0.13,0.923,0.146,1.401
	c0.022,0.476,0.041,0.961,0.061,1.458C-2.62,5.312-2.64,5.481-2.64,5.659c0,0.18,0.041,0.307,0.121,0.388
	C-2.54,6.089-2.55,6.156-2.55,6.255c0,0.159,0.031,0.29,0.089,0.389c0.06,0.101,0.09,0.229,0.09,0.388
	c0,0.039-0.004,0.073-0.017,0.104c-0.008,0.03-0.014,0.065-0.014,0.104c0.12,0.158,0.172,0.367,0.164,0.625
	c-0.01,0.258,0.045,0.466,0.164,0.625c0.139,0.159,0.217,0.353,0.237,0.581c0.021,0.228,0.081,0.422,0.18,0.58
	c0.12,0.1,0.195,0.227,0.223,0.389c0.03,0.158,0.114,0.286,0.251,0.388c0.021,0.099,0.081,0.177,0.18,0.237
	c0.1,0.06,0.148,0.148,0.148,0.268c0.061,0.12,0.128,0.225,0.209,0.312c0.078,0.09,0.138,0.204,0.178,0.342
	c0.119,0.101,0.224,0.214,0.314,0.344c0.089,0.128,0.179,0.251,0.269,0.371c0.088,0.118,0.188,0.228,0.297,0.328
	c0.109,0.099,0.242,0.179,0.4,0.238c0.198,0.14,0.389,0.302,0.565,0.492c0.18,0.188,0.378,0.331,0.597,0.43
	c0.099,0,0.18,0.026,0.239,0.076c0.058,0.048,0.112,0.109,0.164,0.177c0.05,0.07,0.104,0.129,0.164,0.18
	c0.061,0.05,0.147,0.074,0.269,0.074c0.376,0.059,0.719,0.179,1.026,0.358c0.049,0.027,0.099,0.055,0.146,0.08
	c-0.487,0.006-0.968,0.034-1.44,0.086c-0.18,0.061-0.359,0.09-0.536,0.09c-0.159,0-0.323-0.016-0.492-0.045
	c-0.168-0.029-0.344-0.045-0.521-0.045c-0.158,0-0.328,0.03-0.505,0.09c-0.18,0-0.359-0.029-0.536-0.09
	c-0.18-0.06-0.368-0.088-0.565-0.088c-0.318,0-0.607,0.059-0.865,0.178l-0.268-0.178c-0.02,0-0.078,0.021-0.178,0.059
	c-0.1,0.04-0.208,0.109-0.328,0.209c-0.118,0.1-0.224,0.248-0.312,0.445c-0.088,0.198-0.134,0.447-0.134,0.745
	c0,0.156,0.024,0.315,0.074,0.476c0.052,0.157,0.075,0.316,0.075,0.476c0,0.219-0.021,0.431-0.06,0.638
	c-0.039,0.208-0.058,0.422-0.058,0.641c0,0.098,0.003,0.268,0.015,0.506c0.009,0.239,0.043,0.408,0.103,0.508
	c-0.039,0.156-0.053,0.342-0.044,0.549c0.011,0.209,0.005,0.413-0.016,0.612c0.102,0.156,0.249,0.312,0.448,0.461
	c0.197,0.148,0.406,0.223,0.625,0.223c0.118,0,0.247-0.015,0.387-0.043c0.139-0.031,0.268-0.066,0.387-0.105
	c0.06,0,0.123,0.007,0.195,0.017c0.067,0.008,0.152,0.014,0.252,0.014c0.119,0,0.269-0.006,0.446-0.014
	c0.178-0.01,0.287-0.047,0.328-0.106c0.099,0.022,0.208,0.044,0.328,0.075c0.119,0.031,0.238,0.045,0.357,0.045
	c0.08,0,0.154-0.014,0.223-0.045c0.068-0.028,0.154-0.044,0.253-0.044s0.203,0.011,0.31,0.028c0.11,0.021,0.216,0.03,0.314,0.03
	c0.14,0,0.238-0.02,0.298-0.06c0.117,0,0.237,0.017,0.357,0.044c0.118,0.03,0.236,0.043,0.356,0.043s0.229-0.023,0.328-0.073
	c0.099-0.049,0.198-0.074,0.3-0.074c0.099,0,0.196,0.01,0.297,0.027c0.099,0.022,0.197,0.03,0.299,0.03
	c0.098,0,0.197-0.02,0.298-0.058c0.099-0.04,0.188-0.061,0.268-0.061c0.02,0,0.078,0.021,0.178,0.061
	c0.099,0.038,0.208,0.088,0.328,0.147c0.119,0.06,0.229,0.118,0.328,0.179c0.099,0.06,0.146,0.098,0.146,0.12
	c0,0.337-0.013,0.684-0.043,1.041c-0.029,0.357-0.055,0.705-0.075,1.041c0.021,0.08,0.055,0.148,0.105,0.211
	c0.05,0.058,0.082,0.128,0.103,0.206c-0.039,0.06-0.072,0.178-0.103,0.356c-0.03,0.18-0.055,0.383-0.074,0.612
	c-0.021,0.227-0.03,0.466-0.03,0.716v0.638c0,0.198,0.025,0.382,0.074,0.552c0.051,0.168,0.076,0.352,0.076,0.548
	c0,0.258-0.065,0.473-0.194,0.641c-0.129,0.169-0.282,0.305-0.462,0.403H5.193c-0.16,0-0.317,0.011-0.477,0.029
	c-0.159,0.021-0.316,0.028-0.476,0.028c-0.238,0-0.418-0.05-0.535-0.148c-0.041,0-0.084,0.007-0.134,0.016
	c-0.051,0.009-0.095,0.016-0.134,0.016c-0.12,0-0.229-0.012-0.328-0.03c-0.1-0.02-0.198-0.027-0.297-0.027
	c-0.1,0-0.194,0.019-0.284,0.058c-0.089,0.04-0.184,0.06-0.282,0.06c-0.12,0-0.238-0.02-0.358-0.06
	c-0.12-0.039-0.249-0.058-0.389-0.058c-0.099,0-0.192,0.014-0.281,0.043c-0.09,0.03-0.182,0.046-0.283,0.046
	c-0.117,0-0.238-0.011-0.357-0.031c-0.119-0.02-0.238-0.028-0.359-0.028c-0.138,0-0.236,0.01-0.297,0.028l-0.028,0.031
	c-0.159-0.062-0.318-0.089-0.477-0.089c-0.119,0-0.242,0.008-0.373,0.027c-0.129,0.019-0.263,0.03-0.402,0.03
	c-0.037,0-0.074-0.007-0.103-0.016c-0.03-0.011-0.065-0.016-0.106-0.016h-0.117c-0.061,0-0.1-0.011-0.12-0.028
	c-0.258,0.021-0.461,0.125-0.61,0.312c-0.147,0.19-0.273,0.391-0.371,0.609c0.039,0.219,0.049,0.481,0.027,0.789
	c-0.02,0.308,0,0.583,0.06,0.82c0,0.039-0.016,0.099-0.044,0.177c-0.03,0.081-0.043,0.159-0.043,0.24
	c0,0.258,0.02,0.495,0.057,0.714c0.041,0.217,0.061,0.446,0.061,0.685c0,0.12-0.011,0.234-0.029,0.344
	c-0.021,0.106-0.028,0.233-0.028,0.37c0,0.953,0.348,1.43,1.042,1.43h0.654c0.14,0,0.254,0.011,0.343,0.028
	c0.09,0.02,0.203,0.03,0.341,0.03c0.14,0,0.24-0.011,0.3-0.03c0.159,0.042,0.318,0.062,0.477,0.062c0.178,0,0.326-0.03,0.445-0.09
	c0.198,0,0.389,0.011,0.565,0.028c0.18,0.02,0.367,0.03,0.565,0.03c0.12,0,0.243-0.005,0.372-0.015
	c0.131-0.01,0.244-0.033,0.344-0.075c0.117,0.06,0.246,0.089,0.386,0.089c0.12,0,0.239-0.011,0.358-0.029
	c0.119-0.021,0.248-0.029,0.387-0.029c0.141,0,0.238,0.012,0.297,0.029c0.06-0.021,0.139-0.029,0.239-0.029
	c0.336,0,0.686,0.029,1.042,0.09c0.358,0.059,0.694,0.088,1.011,0.088c0.139,0,0.283-0.01,0.432-0.029
	c0.15-0.02,0.304-0.027,0.462-0.027c0.219,0,0.422,0.013,0.611,0.043C8.136,34.985,8.319,35,8.499,35
	c0.138,0,0.268-0.015,0.385-0.044c0.12-0.03,0.24-0.043,0.358-0.043c0.179,0,0.358,0.008,0.535,0.027
	c0.18,0.021,0.358,0.029,0.535,0.029h0.194c0.07,0,0.144-0.01,0.224-0.029c0.081,0,0.164,0.006,0.253,0.016s0.185,0.017,0.284,0.017
	c0.099,0,0.197-0.007,0.298-0.017c0.098-0.01,0.196-0.016,0.297-0.016c0.06,0,0.129,0.006,0.209,0.016
	c0.079,0.01,0.169,0.017,0.267,0.017c0.18,0,0.317-0.031,0.418-0.09c0.099-0.062,0.188-0.09,0.267-0.09
	c0.101,0,0.188,0.011,0.269,0.028c0.081,0.021,0.169,0.03,0.269,0.03c0.178,0,0.325-0.03,0.445-0.087
	c0.197,0.057,0.467,0.087,0.806,0.087c0.179,0,0.355-0.015,0.535-0.043c0.179-0.03,0.326-0.044,0.447-0.044
	c0.059,0,0.107,0.009,0.146,0.027c0.039,0.02,0.09,0.029,0.148,0.029c0.101,0,0.21-0.005,0.328-0.016
	c0.119-0.01,0.24-0.016,0.359-0.016c0.156,0,0.311,0.006,0.462,0.016c0.148,0.011,0.302,0.016,0.461,0.016
	c0.436,0,0.833-0.029,1.192-0.09c0-0.02,0.02-0.029,0.058-0.029h0.091c0.019-0.058,0.048-0.123,0.089-0.193
	c0.039-0.07,0.078-0.143,0.118-0.223c0.059-0.082,0.109-0.169,0.147-0.267c0-0.14-0.003-0.269-0.014-0.389
	c-0.012-0.119-0.016-0.238-0.016-0.357c0-0.476,0.011-0.952,0.029-1.429c0.018-0.477,0.028-0.944,0.028-1.4V29.88
	c0-0.241-0.02-0.477-0.059-0.715c-0.04-0.24-0.109-0.441-0.207-0.611c-0.102-0.169-0.25-0.251-0.448-0.251
	c-0.099,0-0.193,0.013-0.283,0.043c-0.089,0.029-0.184,0.045-0.283,0.045c-0.139,0-0.267-0.01-0.387-0.031
	c-0.118-0.02-0.25-0.028-0.387-0.028c-0.119,0-0.207,0.011-0.267,0.028l-0.03,0.031c-0.121-0.021-0.223-0.045-0.312-0.075
	c-0.09-0.031-0.175-0.044-0.251-0.044c-0.101,0-0.19,0.014-0.269,0.044c-0.081,0.028-0.169,0.055-0.269,0.075
	c-0.138-0.08-0.277-0.119-0.416-0.119s-0.281,0.02-0.432,0.059c-0.148,0.04-0.303,0.061-0.462,0.061h-0.193
	c-0.088,0-0.154-0.021-0.195-0.061c-0.057,0.02-0.166,0.029-0.325,0.029c-0.081,0-0.159-0.005-0.239-0.016
	c-0.08-0.01-0.17-0.016-0.269-0.016c-0.117,0-0.231,0.011-0.341,0.029c-0.109,0.021-0.203,0.06-0.284,0.119
	c-0.099-0.02-0.277-0.028-0.534-0.028h-0.567c-0.257-0.039-0.421-0.164-0.49-0.372c-0.07-0.209-0.135-0.413-0.195-0.609
	c0.021-0.219,0.045-0.443,0.076-0.67c0.029-0.229,0.043-0.453,0.043-0.672c0-0.238-0.033-0.45-0.104-0.638
	c-0.07-0.19-0.104-0.373-0.104-0.551c0-0.238,0.025-0.473,0.075-0.701c0.047-0.228,0.074-0.47,0.074-0.729
	c0-0.158-0.02-0.326-0.06-0.505c-0.041-0.18-0.061-0.358-0.061-0.535c0-0.34,0.08-0.661,0.238-0.969
	c0.159-0.308,0.389-0.464,0.686-0.464c0.061,0,0.148,0.017,0.269,0.044c0.119,0.03,0.254,0.062,0.403,0.09
	c0.148,0.03,0.293,0.062,0.43,0.09c0.14,0.029,0.259,0.045,0.359,0.045c0.138,0,0.272-0.03,0.401-0.089
	c0.13-0.062,0.263-0.09,0.403-0.09c0.098,0,0.183,0.02,0.251,0.062c0.07,0.037,0.152,0.057,0.252,0.057
	c0.102,0,0.199-0.009,0.3-0.027c0.099-0.02,0.197-0.029,0.298-0.029c0.079,0,0.153,0.016,0.223,0.045
	c0.07,0.027,0.153,0.043,0.254,0.043c0.098,0,0.194-0.016,0.282-0.043c0.089-0.029,0.184-0.045,0.283-0.045s0.193,0.021,0.282,0.06
	s0.185,0.06,0.282,0.06c0.14,0,0.265-0.021,0.374-0.06c0.108-0.039,0.242-0.06,0.401-0.06c0.099,0,0.198,0.021,0.3,0.06
	c0.099,0.039,0.196,0.06,0.297,0.06c0.278,0,0.552-0.08,0.817-0.239c0.269-0.159,0.403-0.367,0.403-0.625
	c0-0.138-0.025-0.282-0.075-0.433c-0.05-0.148-0.075-0.291-0.075-0.43c0-0.239,0.025-0.473,0.075-0.699
	c0.05-0.23,0.075-0.473,0.075-0.73c0-0.159-0.01-0.289-0.028-0.386c-0.06-0.16-0.089-0.318-0.089-0.477
	c0-0.219,0.02-0.414,0.059-0.583c0.041-0.167,0.061-0.381,0.061-0.639c0-0.138-0.02-0.298-0.061-0.474
	c-0.04-0.18-0.104-0.349-0.193-0.508c-0.089-0.159-0.198-0.292-0.328-0.398c-0.129-0.109-0.273-0.164-0.433-0.164
	c-0.098,0.039-0.177,0.073-0.237,0.103c-0.06,0.031-0.139,0.046-0.239,0.046c-0.138,0-0.273-0.015-0.401-0.046
	c-0.13-0.027-0.273-0.043-0.432-0.043c-0.059,0-0.119,0.008-0.179,0.03c-0.062,0.02-0.109,0.03-0.148,0.03
	c-0.02,0-0.035-0.006-0.043-0.016c-0.012-0.011-0.037-0.015-0.076-0.015c-0.021,0-0.051,0.02-0.088,0.059
	c-0.102-0.039-0.214-0.07-0.344-0.089c-0.129-0.02-0.273-0.029-0.43-0.029c-0.219,0-0.429,0.02-0.627,0.059
	c-0.199,0.04-0.387,0.06-0.566,0.06c-0.138,0-0.253-0.015-0.343-0.044s-0.204-0.045-0.342-0.045c-0.14,0-0.24,0.02-0.3,0.061
	c-0.099-0.021-0.188-0.031-0.266-0.031h-0.271c-0.178,0-0.347,0.005-0.506,0.016c-0.134,0.008-0.283,0.018-0.445,0.035
	c0.072-0.085,0.18-0.127,0.326-0.127h0.18c0.139,0,0.383-0.096,0.73-0.283c0.346-0.19,0.639-0.362,0.876-0.522
	c0.219,0,0.448-0.109,0.687-0.327c0.238-0.219,0.406-0.366,0.507-0.445c0.197-0.12,0.367-0.263,0.505-0.433
	c0.138-0.166,0.269-0.341,0.388-0.521c0.219-0.138,0.387-0.305,0.506-0.492c0.12-0.189,0.258-0.383,0.417-0.58
	c0.119-0.079,0.193-0.193,0.224-0.342c0.028-0.15,0.094-0.284,0.194-0.404c0.061-0.078,0.115-0.158,0.164-0.236
	c0.048-0.08,0.082-0.179,0.103-0.297c0.101-0.279,0.239-0.523,0.417-0.729c0.18-0.208,0.316-0.482,0.416-0.819
	c0-0.337,0.055-0.632,0.164-0.879c0.108-0.25,0.164-0.542,0.164-0.878c0-0.398,0.031-0.794,0.104-1.191
	c0.07-0.397,0.105-0.833,0.105-1.309c0-0.258-0.006-0.518-0.016-0.773c-0.012-0.26-0.018-0.519-0.018-0.776
	c0-0.219,0.012-0.422,0.03-0.609c0.02-0.19,0.028-0.383,0.028-0.582c0-0.119-0.005-0.233-0.014-0.342
	c-0.012-0.109-0.015-0.223-0.015-0.342c0-0.081,0.003-0.148,0.015-0.209c0.009-0.059,0.032-0.13,0.074-0.209
	c-0.02-0.059-0.029-0.14-0.029-0.238c0-0.159,0.015-0.303,0.045-0.432C19.474-0.795,19.489-0.929,19.489-1.067z M0.521-0.442
	C0.68-0.362,0.785-0.229,0.834-0.04c0.049,0.188,0.083,0.352,0.104,0.491c-0.039,0.04-0.055,0.069-0.043,0.09
	c0.01,0.02-0.006,0.028-0.045,0.028c-0.24,0-0.362-0.088-0.373-0.268c-0.01-0.18-0.033-0.339-0.074-0.476
	c0.041-0.06,0.051-0.118,0.03-0.179C0.412-0.412,0.443-0.442,0.521-0.442z M0.625,2.028c0.011,0.079-0.023,0.14-0.104,0.18
	c-0.039-0.042-0.084-0.09-0.133-0.149C0.336,2,0.312,1.919,0.312,1.82V1.463c0.041-0.041,0.109-0.06,0.209-0.06
	c0.04,0.078,0.064,0.153,0.075,0.223S0.631,1.76,0.672,1.82C0.631,1.88,0.616,1.949,0.625,2.028z M0.18-1.084
	c0.01-0.05,0.004-0.093-0.016-0.133c0.039-0.039,0.109-0.059,0.209-0.059c0.021,0.02,0.029,0.05,0.029,0.09
	c0,0.039-0.02,0.082-0.059,0.133c-0.041,0.05-0.08,0.075-0.119,0.075C0.184-0.998,0.17-1.032,0.18-1.084z M0.373,4.618
	C0.334,4.539,0.312,4.479,0.312,4.44c0-0.081,0.026-0.174,0.076-0.283c0.049-0.109,0.094-0.164,0.133-0.164
	c0.021,0,0.031,0.01,0.031,0.03v0.089c0,0.059,0.02,0.088,0.057,0.088C0.572,4.239,0.555,4.321,0.566,4.44
	c0.01,0.118-0.035,0.178-0.134,0.178H0.373L0.373,4.618z M0.73,6.138c-0.059,0.061-0.109,0.12-0.149,0.178
	c-0.099,0-0.148-0.068-0.148-0.207c0-0.061,0.024-0.135,0.075-0.223C0.558,5.797,0.632,5.75,0.73,5.75
	c0.059,0,0.09,0.052,0.09,0.149C0.82,5.999,0.789,6.078,0.73,6.138z M0.968,8.654c0,0.069-0.02,0.104-0.06,0.104
	c-0.02,0-0.027-0.011-0.027-0.03c-0.021-0.022-0.03-0.035-0.03-0.046c0-0.009-0.009-0.024-0.03-0.044c0-0.1,0.05-0.148,0.15-0.148
	v0.164H0.968z M0.908-2.438L0.881-2.467c0-0.08,0.018-0.12,0.057-0.12s0.061,0.021,0.061,0.06L0.908-2.438z M2.396,15.98
	c0.042,0,0.065-0.03,0.075-0.09c0.011-0.06,0.023-0.087,0.045-0.087c0.039,0,0.059,0.037,0.059,0.117c0,0.06-0.011,0.109-0.03,0.148
	c-0.019,0.04-0.05,0.088-0.089,0.148c-0.039-0.021-0.06-0.05-0.06-0.089V15.98L2.396,15.98z M2.636,18.659
	c0,0.081-0.02,0.14-0.06,0.18c-0.021,0-0.039,0.01-0.059,0.03c-0.06,0-0.095-0.03-0.105-0.09s-0.034-0.101-0.075-0.12V18.57
	c0-0.06-0.008-0.119-0.029-0.178c-0.02-0.061-0.031-0.12-0.031-0.18c0-0.101,0.042-0.148,0.12-0.148c0.079,0,0.12,0.025,0.12,0.075
	s0.021,0.093,0.059,0.134v0.061c0,0.037,0.02,0.06,0.06,0.06L2.636,18.659L2.636,18.659z M3.619,18.393
	c-0.04,0-0.062-0.029-0.062-0.089c-0.018-0.021-0.028-0.042-0.028-0.06h0.149C3.678,18.304,3.657,18.352,3.619,18.393z
	 M2.159,31.672c0-0.1,0.008-0.147,0.029-0.147l0.031,0.058C2.22,31.642,2.198,31.672,2.159,31.672z M2.845,30.718
	c0,0.061-0.021,0.09-0.059,0.09h-0.09c-0.02-0.021-0.029-0.049-0.029-0.09v-0.207c0.078,0,0.139,0.021,0.179,0.059L2.845,30.718
	L2.845,30.718z M3.438,31.821c-0.039,0.039-0.08,0.078-0.117,0.118c-0.081,0-0.12-0.04-0.12-0.118c0-0.081,0.026-0.153,0.075-0.224
	c0.05-0.07,0.094-0.104,0.135-0.104c0.039,0,0.063,0.02,0.074,0.06c0.01,0.039,0.016,0.081,0.016,0.119
	C3.498,31.731,3.479,31.781,3.438,31.821z M3.946,32.806c0-0.042-0.021-0.071-0.061-0.09c-0.04-0.022-0.06-0.051-0.06-0.09
	c0-0.081,0.06-0.118,0.18-0.118c0,0.037,0.004,0.074,0.015,0.103c0.009,0.028,0.014,0.063,0.014,0.105
	C4.034,32.773,4.006,32.806,3.946,32.806z M5.346,31.79c-0.079-0.02-0.118-0.089-0.118-0.208c0-0.058,0.005-0.124,0.015-0.193
	c0.008-0.056,0.027-0.086,0.053-0.099c-0.006,0.008,0.01,0.025,0.053,0.055c0.059,0.039,0.088,0.138,0.088,0.297
	C5.436,31.701,5.404,31.751,5.346,31.79z M14.011,30.569c0-0.04,0.03-0.059,0.09-0.059c0.038,0,0.068,0.021,0.088,0.059
	c0,0.121-0.05,0.209-0.147,0.27c-0.022,0-0.03-0.021-0.03-0.061V30.569L14.011,30.569z M13.415,31.493
	c0.06,0,0.121,0.05,0.178,0.148c0.061,0.099,0.09,0.18,0.09,0.237c0,0.021-0.02,0.071-0.059,0.15
	c-0.119-0.041-0.189-0.104-0.209-0.195c-0.019-0.091-0.038-0.185-0.059-0.282C13.356,31.513,13.377,31.493,13.415,31.493z
	 M12.819,32.566c0.021,0,0.03-0.007,0.03-0.015c0-0.012,0.011-0.017,0.03-0.017c0.057,0,0.087,0.037,0.087,0.119
	c0,0.1-0.03,0.148-0.087,0.148c-0.041-0.021-0.061-0.049-0.061-0.088V32.566L12.819,32.566z M11.538,31.225
	c0.021,0.039,0.046,0.081,0.075,0.12c0.03,0.039,0.047,0.081,0.047,0.12s-0.031,0.078-0.09,0.119c-0.02,0-0.029-0.029-0.029-0.09
	v-0.27H11.538z M14.338,15.804c0.039,0,0.069,0.032,0.089,0.102c0.021,0.07,0.029,0.143,0.029,0.224s-0.029,0.12-0.09,0.12
	c-0.059-0.102-0.088-0.209-0.088-0.328C14.278,15.841,14.298,15.804,14.338,15.804z M14.189,18.585
	c0.021-0.011,0.028-0.034,0.028-0.074v-0.09c0,0.04,0.025-0.013,0.076-0.161c0.049-0.15,0.123-0.225,0.223-0.225
	c-0.02,0.02-0.03,0.05-0.03,0.088c0,0.06,0.011,0.109,0.03,0.149c0.02,0.039,0.029,0.089,0.029,0.148s-0.01,0.144-0.029,0.253
	c-0.02,0.108-0.069,0.185-0.147,0.223h-0.028c-0.042,0-0.068-0.011-0.076-0.027c-0.012-0.022-0.033-0.042-0.075-0.062
	c0-0.02,0.005-0.034,0.016-0.044c0.011-0.011,0.016-0.025,0.016-0.045c0-0.018-0.011-0.028-0.03-0.028
	c-0.021,0-0.029-0.011-0.029-0.028C14.158,18.62,14.169,18.596,14.189,18.585z M12.507,17.022c0.029-0.079,0.074-0.12,0.135-0.12
	c0.039,0,0.059,0.05,0.059,0.148v0.359c0,0.117,0.01,0.197,0.029,0.237H12.7l-0.059,0.03c-0.12-0.061-0.179-0.219-0.179-0.476
	C12.463,17.162,12.478,17.101,12.507,17.022z M14.144-1.111c0.031-0.149,0.077-0.224,0.135-0.224c0.021,0,0.052,0.02,0.091,0.06
	c0,0.157-0.007,0.312-0.017,0.462c-0.01,0.148-0.074,0.262-0.194,0.342C14.12-0.532,14.101-0.62,14.101-0.74
	C14.101-0.841,14.114-0.964,14.144-1.111z M11.241-1.813l0.028,0.031l0.03,0.028c0,0.039-0.03,0.061-0.09,0.061
	C11.213-1.773,11.221-1.813,11.241-1.813z M10.049-0.325v0.03c0,0.02-0.008,0.03-0.027,0.03H9.96
	C9.96-0.303,9.991-0.325,10.049-0.325z M3.425-2.229c-0.01-0.059,0.034-0.09,0.133-0.09c0.062,0,0.107,0.06,0.135,0.18
	c0.029,0.117,0.061,0.256,0.09,0.415C3.811-1.564,3.841-1.412,3.87-1.261c0.029,0.149,0.062,0.252,0.105,0.312
	C3.936-0.909,3.911-0.86,3.9-0.8C3.892-0.74,3.846-0.71,3.767-0.71c-0.1-0.08-0.159-0.179-0.178-0.299
	C3.568-1.128,3.556-1.251,3.545-1.381C3.534-1.51,3.519-1.639,3.501-1.768C3.479-1.896,3.44-2.001,3.381-2.079
	C3.419-2.121,3.436-2.169,3.425-2.229z M2.458-1.158c0.02-0.04,0.06-0.059,0.118-0.059v0.089c0,0.139-0.039,0.287-0.118,0.447
	c-0.061-0.021-0.08-0.07-0.061-0.149C2.419-0.909,2.408-0.989,2.37-1.068C2.408-1.087,2.438-1.118,2.458-1.158z M2.259,0.017
	C2.279,0.115,2.31,0.22,2.349,0.329C2.386,0.438,2.407,0.541,2.407,0.64c0,0.14-0.059,0.24-0.179,0.299h-0.09
	c-0.02,0-0.028-0.012-0.028-0.03V0.88C2.069,0.838,2.05,0.769,2.05,0.67c0-0.159,0.025-0.282,0.074-0.371
	C2.177,0.21,2.22,0.115,2.259,0.017z M1.473-0.904C1.453-0.896,1.436-0.87,1.414-0.83c-0.08-0.02-0.119-0.099-0.119-0.237
	c0-0.04,0.021-0.061,0.06-0.061S1.43-1.092,1.459-1.021C1.484-0.962,1.5-0.936,1.503-0.942C1.5-0.928,1.492-0.915,1.473-0.904z
	 M1.801-1.782c0-0.04,0.035-0.099,0.105-0.177c0.069-0.081,0.124-0.12,0.165-0.12H2.1v0.208c0,0.038-0.011,0.068-0.028,0.089
	c0,0.059-0.026,0.083-0.076,0.074S1.901-1.713,1.861-1.691C1.82-1.732,1.801-1.764,1.801-1.782z M2.1,9.115
	c0,0.118-0.039,0.188-0.117,0.208C1.94,9.303,1.922,9.264,1.922,9.204V9.026c0.04-0.021,0.063-0.052,0.076-0.09
	c0.009-0.04,0.044-0.059,0.104-0.059v0.237H2.1z M4.243,17.527c-0.021-0.057-0.034-0.104-0.045-0.133
	c-0.01-0.028-0.014-0.064-0.014-0.104c0-0.021,0.01-0.065,0.029-0.136c0.019-0.07,0.05-0.104,0.088-0.104
	c0.02,0,0.029,0.016,0.029,0.045s0.02,0.044,0.061,0.044C4.392,17.301,4.342,17.429,4.243,17.527z M4.556,11.155
	c-0.029,0.01-0.062,0.033-0.104,0.074c-0.078,0-0.12-0.039-0.12-0.119c0-0.041,0.006-0.084,0.016-0.136
	c0.01-0.05,0.055-0.073,0.136-0.073c0.038,0,0.067,0.034,0.089,0.104c0.016,0.06,0.025,0.086,0.028,0.081
	C4.6,11.123,4.584,11.144,4.556,11.155z M5.821,18.749c0,0.021-0.02,0.03-0.058,0.03c0-0.06,0.019-0.09,0.058-0.09V18.749z
	 M6.061,13.465c-0.08-0.042-0.119-0.121-0.119-0.241c0-0.038,0.01-0.104,0.029-0.191c0.02-0.09,0.069-0.136,0.15-0.136
	c0.039,0.039,0.06,0.1,0.06,0.178C6.18,13.274,6.139,13.402,6.061,13.465z M6.403,17.096c0.03,0.07,0.043,0.153,0.043,0.252
	c0,0.139-0.039,0.24-0.117,0.3h-0.03c-0.037,0-0.064-0.016-0.074-0.044c-0.01-0.031-0.025-0.055-0.044-0.076
	c0-0.08,0.004-0.189,0.016-0.328c0.011-0.138,0.044-0.207,0.103-0.207C6.337,16.992,6.373,17.027,6.403,17.096z M6.326,10.631
	c0.042-0.039,0.1-0.06,0.178-0.06c0.061,0.021,0.091,0.07,0.091,0.148v0.298h-0.06l-0.029,0.03c-0.1,0-0.153-0.045-0.164-0.133
	C6.332,10.825,6.326,10.729,6.326,10.631z M6.506,31.434v0.028c0,0.04-0.04,0.06-0.119,0.06c-0.1-0.099-0.147-0.219-0.147-0.356
	c0-0.139-0.022-0.269-0.06-0.389c0.259,0.12,0.387,0.328,0.387,0.626C6.548,31.403,6.525,31.415,6.506,31.434z M6.595,19.851
	c0,0.061-0.009,0.108-0.028,0.148c-0.041,0.039-0.07,0.059-0.09,0.059c-0.08,0-0.135-0.048-0.163-0.146
	c-0.031-0.1-0.047-0.179-0.047-0.24c0-0.039,0.016-0.107,0.047-0.205c0.027-0.102,0.073-0.151,0.133-0.151
	c0.059,0,0.089,0.022,0.089,0.06c0,0.039,0.021,0.07,0.06,0.092V19.851L6.595,19.851z M6.849,18.48
	c-0.03-0.06-0.046-0.109-0.046-0.148c0-0.08,0.042-0.119,0.12-0.119c0.021,0,0.055,0.039,0.104,0.119
	c0.051,0.081,0.075,0.139,0.075,0.179c0,0.02-0.021,0.039-0.06,0.06C6.943,18.57,6.879,18.541,6.849,18.48z M7.073,32.118
	c-0.039,0-0.069-0.028-0.09-0.089v-0.028c0-0.021,0.021-0.028,0.06-0.028c0.06,0,0.09,0.028,0.09,0.088
	C7.132,32.098,7.11,32.118,7.073,32.118z M7.31,19.358c-0.078-0.148-0.118-0.302-0.118-0.461c0-0.08,0.028-0.118,0.089-0.118
	c0.099,0,0.174,0.048,0.224,0.147c0.047,0.099,0.074,0.18,0.074,0.239c0,0.099-0.016,0.203-0.046,0.312
	c-0.028,0.109-0.044,0.222-0.044,0.341C7.45,19.662,7.39,19.509,7.31,19.358z M7.578,11.735c0-0.039,0.004-0.069,0.015-0.089
	c0.01-0.021,0.016-0.049,0.016-0.088c0.099,0,0.148,0.059,0.148,0.177c0,0.06-0.021,0.101-0.061,0.12
	C7.618,11.855,7.578,11.813,7.578,11.735z M7.696,28.724v0.029c0,0.039-0.028,0.08-0.088,0.12H7.548c-0.039,0-0.06-0.04-0.06-0.12
	C7.528,28.733,7.598,28.724,7.696,28.724z M7.608,17.379c0,0.1-0.041,0.189-0.12,0.269c-0.117-0.04-0.179-0.169-0.179-0.388
	c0.041-0.039,0.062-0.094,0.062-0.164s0.05-0.104,0.148-0.104c0.021,0,0.039,0.055,0.059,0.163
	C7.598,17.265,7.608,17.339,7.608,17.379z M8.024,31.463c-0.16,0-0.252-0.06-0.282-0.179c-0.03-0.118-0.074-0.228-0.134-0.326v-0.15
	c0-0.297-0.089-0.505-0.269-0.625c0.079-0.039,0.153-0.079,0.223-0.118c0.069-0.04,0.145-0.06,0.224-0.06
	c0.041,0,0.078,0.037,0.119,0.118c0.039,0.081,0.078,0.18,0.118,0.3c0.039,0.117,0.069,0.243,0.09,0.371
	c0.019,0.129,0.028,0.232,0.028,0.312C8.145,31.245,8.103,31.365,8.024,31.463z M7.937,17.886c0.039,0,0.06,0.03,0.06,0.087
	l-0.03,0.03C7.944,18.004,7.937,17.965,7.937,17.886z M8.501,29.646c-0.039,0-0.064,0.005-0.072,0.016
	c-0.012,0.009-0.026,0.015-0.045,0.015c-0.06,0-0.1-0.025-0.119-0.074c-0.02-0.05-0.05-0.085-0.089-0.104V29.29
	c0-0.081,0.028-0.119,0.089-0.119c0.158,0,0.278,0.027,0.357,0.09C8.621,29.478,8.579,29.606,8.501,29.646z M8.265,19.374
	c0.039-0.021,0.067-0.044,0.088-0.075c0.021-0.03,0.05-0.044,0.089-0.044s0.075,0.021,0.104,0.06
	c0.031,0.039,0.047,0.079,0.047,0.12c0,0.156-0.05,0.266-0.148,0.325C8.324,19.7,8.265,19.572,8.265,19.374z M9.306,30.897
	c0,0.1-0.044,0.218-0.135,0.358c-0.089,0.139-0.183,0.207-0.284,0.207c-0.038,0-0.067-0.063-0.087-0.192
	c-0.022-0.132-0.03-0.214-0.03-0.254c0-0.178,0.016-0.408,0.044-0.684c0.031-0.279,0.115-0.418,0.253-0.418
	c0.099,0,0.164,0.029,0.195,0.09c0.03,0.06,0.075,0.107,0.136,0.149c-0.042,0.099-0.076,0.188-0.105,0.266
	c-0.03,0.079-0.045,0.159-0.045,0.239C9.285,30.778,9.306,30.86,9.306,30.897z M9.306,28.873h-0.06c-0.06,0-0.089-0.03-0.089-0.089
	c0-0.041,0.011-0.064,0.029-0.075c0.018-0.011,0.039-0.034,0.06-0.076c0.021,0,0.05,0.017,0.089,0.045s0.061,0.055,0.061,0.075
	C9.396,28.794,9.364,28.833,9.306,28.873z M9.335,19.76c0,0.081,0.01,0.14,0.028,0.18c0,0.06-0.026,0.104-0.074,0.134
	c-0.05,0.031-0.094,0.066-0.134,0.104c-0.039-0.02-0.061-0.059-0.061-0.12v-0.118c0.061-0.059,0.12-0.133,0.18-0.223
	c0.061-0.09,0.088-0.194,0.088-0.312c0-0.06-0.011-0.114-0.027-0.163c-0.021-0.049-0.03-0.104-0.03-0.164
	c0-0.021,0.024-0.075,0.074-0.164c0.05-0.088,0.109-0.184,0.18-0.284c0.069-0.099,0.139-0.188,0.209-0.266
	c0.067-0.08,0.122-0.119,0.164-0.119c0.037,0,0.06,0.005,0.06,0.016c0,0.009,0.02,0.024,0.058,0.044
	c-0.02,0.117-0.074,0.222-0.162,0.312c-0.09,0.09-0.154,0.202-0.195,0.343c-0.039,0.138-0.109,0.268-0.208,0.387
	C9.384,19.466,9.335,19.603,9.335,19.76z M9.274,16.992c0-0.021,0.021-0.029,0.061-0.029c0.099,0,0.158,0.049,0.18,0.148
	c0.021,0.099,0.028,0.189,0.028,0.268c0,0.061-0.011,0.139-0.028,0.238c-0.019,0.101-0.07,0.15-0.15,0.15
	c-0.037-0.082-0.079-0.16-0.118-0.24s-0.06-0.169-0.06-0.268c0-0.081,0.039-0.159,0.119-0.237
	C9.306,17.002,9.296,16.992,9.274,16.992z M9.566,11.128c-0.011-0.028-0.016-0.064-0.016-0.104c0-0.061,0.03-0.089,0.089-0.089
	c0.081,0,0.145,0.047,0.195,0.146c0.05,0.101,0.074,0.18,0.074,0.24c0,0.06-0.017,0.104-0.046,0.134
	c-0.028,0.03-0.053,0.066-0.072,0.104c-0.061,0-0.1-0.03-0.119-0.087c-0.022-0.061-0.051-0.11-0.09-0.149v-0.09
	C9.582,11.193,9.577,11.157,9.566,11.128z M9.78,32.178H9.753c-0.04,0-0.051-0.014-0.03-0.044c0.021-0.028,0-0.044-0.06-0.044
	c0.039-0.061,0.065-0.109,0.077-0.148c0.008-0.041,0.032-0.089,0.074-0.15c0.06,0.062,0.088,0.121,0.088,0.182
	C9.901,32.068,9.861,32.139,9.78,32.178z M10.543,31.36c-0.012,0.028-0.017,0.065-0.017,0.103c-0.038,0-0.063,0.007-0.074,0.018
	c-0.011,0.008-0.026,0.014-0.044,0.014c-0.061,0-0.089-0.029-0.089-0.09c0-0.039,0.005-0.074,0.016-0.102
	c0.009-0.03,0.015-0.066,0.015-0.106v-0.058h0.149c0.039,0,0.058,0.038,0.058,0.117C10.557,31.294,10.551,31.329,10.543,31.36z
	 M10.408,20.073c-0.101,0.031-0.148,0.127-0.148,0.285v0.088c0,0.06-0.029,0.104-0.089,0.134c-0.06,0.031-0.109,0.065-0.148,0.104
	c-0.021-0.021-0.028-0.05-0.028-0.089v-0.208c0.156-0.039,0.238-0.188,0.238-0.447v-0.207c0-0.197,0.048-0.338,0.146-0.416
	c0.12,0,0.18,0.129,0.18,0.385C10.557,19.921,10.507,20.044,10.408,20.073z M10.557,17.647c-0.1-0.06-0.148-0.159-0.148-0.3
	c0-0.099,0.009-0.168,0.028-0.208v-0.058c0-0.041,0.011-0.057,0.03-0.047c0.02,0.012,0.037-0.005,0.059-0.043
	c0.08,0,0.13,0.049,0.149,0.147s0.03,0.18,0.03,0.241C10.707,17.479,10.655,17.568,10.557,17.647z M10.973,29.915
	c0.039,0.119,0.061,0.258,0.061,0.418c0,0.02-0.021,0.037-0.061,0.059h-0.028c-0.021,0-0.039-0.011-0.06-0.029v-0.088
	c0-0.081-0.02-0.19-0.061-0.328c-0.037-0.139-0.079-0.258-0.117-0.357c0.038-0.04,0.068-0.06,0.089-0.06
	C10.874,29.667,10.934,29.796,10.973,29.915z M11.137,18.689c0.011,0.081-0.016,0.13-0.074,0.149c-0.079,0-0.118-0.06-0.118-0.18
	v-0.208c0.039,0,0.063-0.011,0.074-0.03c0.009-0.02,0.032-0.027,0.074-0.027c0,0.079,0.021,0.118,0.06,0.118
	C11.132,18.55,11.128,18.609,11.137,18.689z M11.748,10.724c-0.041,0-0.061,0.009-0.061,0.029v0.058c0,0.042-0.009,0.06-0.027,0.06
	c-0.021,0-0.031,0.021-0.031,0.061H11.57c-0.04,0-0.071-0.03-0.09-0.09c-0.02-0.061-0.028-0.101-0.028-0.119
	c0-0.1,0.024-0.168,0.074-0.208c0.05-0.039,0.094-0.099,0.137-0.179c0.058,0.02,0.087,0.069,0.087,0.147v0.241H11.748z
	 M12.763,10.96H12.7c-0.02,0-0.029,0.012-0.029,0.03c-0.06,0-0.088-0.04-0.088-0.12c0-0.057,0.005-0.138,0.016-0.236
	c0.01-0.1,0.083-0.148,0.224-0.148c0.079,0,0.117,0.06,0.117,0.178C12.937,10.823,12.88,10.92,12.763,10.96z M13.28,9.815
	c0.011,0.029,0.016,0.055,0.016,0.074c0,0.041-0.021,0.061-0.059,0.061h-0.061c-0.081-0.119-0.131-0.26-0.148-0.418
	c-0.02-0.159-0.029-0.307-0.029-0.445v-0.09h0.061c0.059,0,0.088,0.02,0.088,0.06v0.059c0.039,0.078,0.061,0.177,0.061,0.297
	s0.029,0.199,0.088,0.239c-0.021,0.019-0.028,0.047-0.028,0.089C13.268,9.761,13.271,9.784,13.28,9.815z M14.546,3.891l-0.24,0.558
	l-0.408,0.457l-0.244,0.537l-0.421,0.417l-0.386,0.438l-0.295,0.514L12.166,7.25L11.69,7.605l-0.397,0.426L10.89,8.455l-0.414,0.41
	l-0.458,0.364L9.705,9.759L9.177,10.04l-0.395,0.442l-0.516,0.289l0.016,0.031l-0.385-0.456l-0.5-0.307L6.884,9.737l-0.38-0.45
	l-0.521-0.3L5.697,8.439L5.195,8.115L4.856,7.629L4.425,7.232l-0.328-0.49L3.604,6.394l-0.36-0.461L2.99,5.392L2.55,4.984
	L2.349,4.407L2.048,3.88l0.041-0.617L1.94,2.684l0.112-0.582L2.174,1.51L2.53,1.025L2.972,0.63l0.334-0.495L3.87-0.026L4.384-0.3
	L4.97-0.181l0.565-0.166l0.57,0.082l0.544,0.201L7.145,0.24l0.352,0.462l0.348,0.443l0.191,0.528l0.251,0.554l0.172-0.585
	l0.351-0.448l0.247-0.508L9.438,0.26l0.49-0.305l0.591-0.017l0.521-0.241l0.564,0.04l0.572,0.018l0.496,0.294l0.495,0.243
	l0.541,0.226l0.314,0.526l0.326,0.495l0.151,0.571l0.193,0.577l-0.151,0.59L14.546,3.891z M14.739,0.702
	c-0.009,0.089-0.076,0.135-0.193,0.135c-0.021-0.041-0.029-0.101-0.029-0.179c0-0.138,0.068-0.308,0.21-0.505
	c0.059-0.101,0.129-0.21,0.208-0.328c0.038,0,0.058,0.028,0.058,0.088v0.148c-0.117,0.081-0.178,0.21-0.178,0.389
	C14.773,0.53,14.75,0.614,14.739,0.702z M15.111,4.026h-0.029V3.995c0-0.078,0.021-0.12,0.06-0.12c0.04,0,0.062,0.028,0.062,0.089
	C15.203,4.004,15.172,4.026,15.111,4.026z M15.29,2.326c-0.02,0-0.027,0.011-0.027,0.03s-0.012,0.028-0.03,0.028
	c-0.118,0-0.204-0.07-0.251-0.208c-0.05-0.138-0.077-0.228-0.077-0.269c0-0.057,0.041-0.088,0.12-0.088
	c0.099,0,0.164,0.064,0.194,0.193c0.029,0.129,0.064,0.233,0.104,0.312H15.29L15.29,2.326z M15.768,5.141
	c0,0.05-0.028,0.074-0.09,0.074H15.65c-0.039-0.02-0.06-0.062-0.06-0.118v-0.12c0.078,0,0.14,0.008,0.177,0.03V5.141L15.768,5.141z
	 M15.828,0.913c-0.041,0.068-0.082,0.152-0.12,0.252c-0.042,0-0.06,0.02-0.06,0.059s-0.012,0.059-0.03,0.059
	c-0.118,0-0.179-0.069-0.179-0.207c0-0.102,0.039-0.209,0.117-0.328c0.081-0.121,0.17-0.18,0.271-0.18
	c0.037,0,0.057,0.028,0.057,0.088C15.885,0.757,15.867,0.842,15.828,0.913z M16.273,2c-0.021,0-0.029-0.041-0.029-0.119
	c0-0.02,0.01-0.04,0.029-0.061h0.029c0.02,0,0.027,0.021,0.027,0.061C16.333,1.959,16.314,2,16.273,2z M16.349-0.964
	c-0.031,0.068-0.063,0.153-0.104,0.254h-0.18c-0.039,0-0.06-0.051-0.06-0.15c0-0.079,0.034-0.138,0.104-0.177
	c0.07-0.042,0.104-0.099,0.104-0.179c0-0.04,0.03-0.059,0.09-0.059c0.039,0,0.069,0.021,0.088,0.059
	C16.393-1.118,16.38-1.032,16.349-0.964z M16.453,8.193h-0.061c-0.021-0.039-0.029-0.1-0.029-0.179h0.029
	c0,0.02,0.011,0.04,0.029,0.059c0.039,0.039,0.06,0.07,0.06,0.09C16.484,8.182,16.473,8.193,16.453,8.193z M16.527-1.932
	c-0.05,0.079-0.096,0.139-0.135,0.178c-0.06-0.02-0.088-0.099-0.088-0.236c0.078-0.12,0.138-0.19,0.18-0.209
	c0.018,0.021,0.043,0.03,0.072,0.03c0.03,0,0.045,0.02,0.045,0.059S16.575-2.012,16.527-1.932z M17.523,0.807
	c0,0.081-0.028,0.12-0.089,0.12c-0.079,0-0.117-0.039-0.117-0.12c0-0.038,0.003-0.074,0.014-0.104
	c0.012-0.028,0.016-0.064,0.016-0.103V0.538c0.021-0.018,0.039-0.028,0.061-0.028c0.038,0,0.059,0.016,0.059,0.046
	c0,0.027,0.021,0.053,0.059,0.072L17.523,0.807L17.523,0.807z"/>
</svg>
